<svg width="28" height="28" viewBox="0 0 754 754" xmlns="http://www.w3.org/2000/svg" xml:space="preserve">
  <g stroke="null">
    <g/>
    <path fill="#eeeded" d="M564.593 253.434h100.173c3.124 0 6.346.098 9.47.489 5.565.683 9.764 2.929 12.888 8.396 19.039 33 38.273 65.904 57.702 98.611 4.98 8.494 4.882 16.012-.195 24.604-54.09 92.07-107.984 184.334-161.878 276.502-5.663 9.763-11.228 19.527-16.989 29.192-4.784 8.006-9.666 8.006-14.645.098-20.406-32.708-40.909-65.318-60.826-98.318-5.273-8.69-12.01-11.814-21.675-11.814-57.995.195-115.99.195-173.985.293-6.835 0-12.693-1.465-17.184-7.42-5.272-7.03-5.468-13.767-1.074-21.285C319.92 477.8 363.27 402.718 406.717 327.637c11.716-20.308 23.433-40.519 35.051-60.924 5.077-8.885 11.423-13.67 22.651-13.376 33.391.78 66.782.293 100.173.293zm-5.956 112.476v-.293h-74.398c-3.808 0-7.713 0-11.52.488-8.593 1.074-15.134 8.006-15.622 16.11-.488 8.69 4.98 16.207 13.766 18.355 2.636.683 5.37.781 8.006.781 53.016 0 106.032.098 158.95 0 11.813 0 19.82-7.127 19.82-17.574.097-10.545-7.519-17.867-19.332-17.867-26.46-.098-53.114 0-79.67 0zm-64.83 108.765c20.308 0 40.616 0 60.924-.098 8.006 0 14.646-2.929 18.258-10.545 5.956-12.692-3.32-25.58-19.039-25.677-40.616-.196-81.232-.098-121.848.097-7.518 0-13.669 3.222-17.183 10.057-6.542 12.79 2.44 25.873 17.964 25.97 20.308.293 40.616.196 60.924.196z" class="st0"/>
    <path fill="#7c5cfc" d="M274.227 604.724c-7.908 0-15.329.195-22.065.195-29.096 0-58.19-.195-87.188 0-8.202 0-13.962-2.831-18.258-10.154A111330 111330 0 0 0 9.344 362.688c-5.175-8.69-5.077-16.696 0-25.385 37.199-64.244 74.3-128.683 111.401-193.024 14.938-25.971 30.17-51.747 44.912-77.815 3.808-6.737 9.178-9.666 16.5-9.666 34.954-.097 69.907 0 104.86 0 6.64 0 11.423 3.125 14.84 8.983a4647 4647 0 0 0 33.001 55.847c4.198 7.03 3.417 13.766-.488 20.503-16.696 29.095-33.391 58.19-50.184 87.188-20.992 36.222-41.886 72.445-63.072 108.667-4.784 8.201-5.175 15.622.097 23.92 14.548 23.042 28.803 46.28 42.862 69.614 4.686 7.81 10.935 11.423 20.015 11.13 8.592-.292 17.184-.097 25.678 0 7.42.098 8.397 2.05 4.686 8.495-19.527 33.684-38.956 67.465-58.483 101.15-4.784 8.2-4.589 15.816 1.27 23.822 5.272 7.03 9.372 14.84 13.961 22.358.781 1.367 1.465 3.027 3.027 6.25z" class="st1"/>
    <g/>
    <path fill="#7c5cfc" d="M471.351 235.274c-2.148 0-11.52-.488-7.03-8.591 19.82-35.832 78.304-132.588 92.46-157.583 3.906-6.932 9.471-9.959 16.99-9.959 36.124-.097 72.151 0 108.276 0 6.834 0 11.814 3.222 15.231 9.178 11.228 19.332 22.554 38.468 33.977 57.605 4.296 7.225 3.515 14.157-.488 21.089-16.305 28.411-29.876 53.992-47.06 81.818-2.05 3.417-5.956 7.615-12.497 7.517" class="st1"/>
  </g>
  <g/>
</svg>
